Coordinates
version=1
nRows=17
nColumns=36
inDegrees=yes

Units are S.I. units (second, meters, Newtons, ...)
If the header above contains a line with 'inDegrees', this indicates whether rotational values are in degrees (yes) or radians (no).

endheader
time	pelvis_tilt	pelvis_list	pelvis_rotation	pelvis_tx	pelvis_ty	pelvis_tz	hip_flexion_r	hip_adduction_r	hip_rotation_r	knee_angle_r	knee_angle_r_beta	ankle_angle_r	subtalar_angle_r	mtp_angle_r	hip_flexion_l	hip_adduction_l	hip_rotation_l	knee_angle_l	knee_angle_l_beta	ankle_angle_l	subtalar_angle_l	mtp_angle_l	lumbar_extension	lumbar_bending	lumbar_rotation	arm_flex_r	arm_add_r	arm_rot_r	elbow_flex_r	pro_sup_r	arm_flex_l	arm_add_l	arm_rot_l	elbow_flex_l	pro_sup_l
      0.00000000	     10.45134808	     -1.45061524	     -1.11327537	      0.65837080	      1.03965226	      0.69532314	    -20.61051674	      1.19992698	      2.65123636	     23.61799555	      0.41221179	      0.17226468	    -10.06751777	     -6.63927665	     11.03188930	     -0.75787717	      0.24940995	     14.59729437	      0.25477085	      2.09923675	     -5.37234647	     -6.63927665	    -26.82891886	     -1.54403169	      6.23327289	     10.66322064	    -19.35374842	      4.88926677	     37.01871006	     94.54516961	      6.87322700	    -11.68972705	     10.15801073	     24.33977963	     89.23700956
      0.01666670	      9.93244021	     -1.41688577	     -2.09747082	      0.66256925	      1.03588347	      0.69421103	    -16.54410105	      0.24396961	      2.23371264	     31.32024260	      0.54664136	     -3.11773874	     -8.30979362	     -6.85312588	     11.39337423	     -0.45000972	      0.40823563	     17.78985231	      0.31049150	      2.96277377	     -6.04471765	     -6.85312588	    -25.71179994	     -2.70394082	      6.79357898	     10.15763828	    -19.88177513	      7.49128052	     36.55318664	    102.51112499	      7.14618012	    -12.39251324	     14.79947668	     24.48093778	     98.01568359
      0.03333330	      9.37471284	     -0.90701018	     -2.61772496	      0.66701041	      1.03535814	      0.69185035	    -12.53454993	     -0.84300977	      1.83922658	     38.54919064	      0.67281030	     -7.46782281	     -8.77168423	     -6.89506284	     11.36224976	      0.43866673	      0.91107583	     19.43704432	      0.33924042	      3.79028881	     -6.33935265	     -6.89506284	    -24.61512811	     -3.62694983	      5.99300683	      9.27321367	    -19.78839167	      9.07902622	     37.03245926	    103.83776059	      6.90820700	    -13.39030118	     17.18895939	     25.24879499	     99.78385326
      0.05000000	      8.66060095	     -0.37327255	     -3.37060837	      0.66929131	      1.03513682	      0.68904842	     -8.41238433	     -1.92466539	      2.19393743	     45.43121008	      0.79292420	    -11.56226829	     -9.35974254	     -6.91773283	     11.30307893	      1.15344194	      0.67098741	     20.53096603	      0.35833296	      5.42463674	     -6.16234021	     -6.91773283	    -23.40917491	     -4.54801679	      5.54895073	      8.20466105	    -19.70213918	      9.38924272	     37.50979895	    104.34374452	      6.61249656	    -14.21033349	     18.21085962	     25.90772344	    100.59834106
      0.06666670	      8.17470316	     -0.19547683	     -4.16151594	      0.66738832	      1.03677863	      0.68655639	     -4.80398989	     -2.26732011	      3.16085502	     50.95864939	      0.88939621	    -14.22844237	    -10.25327896	     -6.94033252	     10.78188690	      1.39666358	     -0.20773003	     20.97999449	      0.36616998	      7.31079616	     -5.39898962	     -6.94033252	    -22.65489526	     -5.05675179	      5.72182536	      7.17205355	    -19.83900964	      8.92204008	     38.02415587	    105.18702184	      6.89515529	    -14.76043726	     19.73716812	     26.20772527	    102.13415114
      0.08333330	      7.69678403	     -0.03869398	     -4.72345993	      0.66398358	      1.03784409	      0.68435371	     -1.53501691	     -2.35530306	      4.17792148	     55.29655397	      0.96510693	    -14.24430552	    -10.79404346	     -6.95516439	     10.20815078	      1.59305625	     -1.05952454	     21.11343973	      0.36849904	      8.68373356	     -4.97098246	     -6.95516439	    -22.07548864	     -5.41094719	      5.73496719	      6.52184696	    -19.92197260	      8.59838419	     38.28703827	    104.91100793	      7.10351979	    -15.07073656	     19.85597499	     26.73294923	    102.17278850
      0.10000000	      7.11244365	     -0.03301471	     -5.01883996	      0.66144491	      1.03781225	      0.68142683	      1.31610840	     -2.05648919	      5.18334791	     58.21420144	      1.01602949	    -12.23058069	    -11.14850440	     -6.99738457	      9.73685526	      1.60065171	     -1.83080740	     21.13983886	      0.36895979	      9.89062413	     -4.39711725	     -6.99738457	    -21.49889847	     -5.55412536	      6.04760325	      5.54818072	    -19.78697209	      7.08381419	     38.74744447	    103.95105566	      7.77622620	    -15.26308575	     20.20437762	     27.23476380	    102.44037514
      0.11666670	      6.68900735	     -0.03678966	     -5.07679828	      0.65953379	      1.03779026	      0.67642815	      3.65066922	     -1.74402224	      5.97397494	     59.98391948	      1.04691689	     -8.90520466	    -11.10720821	     -7.05438945	      8.93968563	      1.69903804	     -2.31533933	     20.82232677	      0.36341816	     10.56666752	     -4.17788808	     -7.05438945	    -21.07400735	     -5.50909335	      6.15352049	      4.89639252	    -19.87025435	      6.83592251	     38.48247153	    101.65763460	      8.64645312	    -15.21184422	     20.94281500	     27.28967629	    101.14018486
      0.13333330	      6.24097618	     -0.00438547	     -5.02921894	      0.65694087	      1.03845227	      0.67039783	      6.28353537	     -1.44207843	      6.42847082	     61.25254420	      1.06905857	     -5.41590914	    -11.08158439	     -7.07455997	      7.96584092	      1.91190870	     -2.53515242	     20.08969767	      0.35063137	     10.90057185	     -3.83176636	     -7.07455997	    -20.72762226	     -5.42799932	      5.91644384	      4.42081637	    -19.79934535	      6.53474110	     38.30728355	    100.67711331	      9.26843212	    -15.27551467	     20.75121468	     28.06931276	    100.32886975
      0.15000000	      5.94738632	      0.01320122	     -4.83502026	      0.65351215	      1.04029315	      0.66491993	      9.27439901	     -1.15687636	      6.38882405	     62.29610838	      1.08727220	     -2.58572961	    -11.42572515	     -7.10864753	      6.66618693	      2.21976945	     -2.31015057	     19.00919559	      0.33177305	     11.05189276	     -3.65977448	     -7.10864753	    -20.59812914	     -5.24206085	      5.51334936	      4.10786989	    -19.56817216	      6.20218122	     37.76539720	     97.92905704	      9.93099355	    -15.25533599	     20.38900460	     28.81540286	     97.81705562
      0.16666670	      5.48804767	      0.06637654	     -4.40171297	      0.64970432	      1.04108285	      0.66141011	     12.76006865	     -0.95972709	      5.96168542	     63.05326118	      1.10048701	     -0.49565094	    -12.01040816	     -7.11503157	      5.59562207	      2.57484149	     -1.77034488	     17.94491007	      0.31319776	     11.28496818	     -3.48175724	     -7.11503157	    -20.24530041	     -5.00532003	      4.91426817	      3.58597641	    -19.43656702	      5.91748350	     37.51838564	     97.86017980	     10.70306755	    -15.29847586	     20.28954909	     29.19577022	     97.96857277
      0.18333330	      5.17791885	      0.03889578	     -3.83035686	      0.64546978	      1.04132022	      0.65992793	     15.95318799	     -0.73365494	      5.46898015	     63.16147458	      1.10237569	      0.73630415	    -13.14596106	     -7.12512096	      4.40365936	      2.87150027	     -0.73760127	     16.87383587	      0.29450399	     11.17552344	     -4.10770497	     -7.12512096	    -20.28860567	     -4.70691313	      4.01390757	      2.97577409	    -19.22936673	      5.57126935	     38.33463497	     94.90381451	     10.97791447	    -15.60153402	     19.93400828	     30.79725768	     95.18249726
      0.20000000	      4.89253111	     -0.26256041	     -3.18865305	      0.64254006	      1.04109299	      0.65855251	     18.62875460	     -0.38425033	      4.82450641	     62.15337614	      1.08478105	      2.11972572	    -13.22635758	     -7.19402865	      3.44857798	      2.72984766	     -0.16032788	     16.37445609	      0.28578817	     11.90237652	     -3.92411637	     -7.19402865	    -20.07290805	     -4.16120537	      4.15522338	      1.94696979	    -18.87985651	      3.57796261	     38.03227082	     94.88927813	     12.78350572	    -15.19801544	     21.23579342	     29.61162961	     97.40514319
      0.21666670	      4.62120519	     -0.53651477	     -2.50445405	      0.64206481	      1.04194803	      0.65674624	     20.69694870	     -0.16512110	      4.11507297	     59.95862447	      1.04647541	      3.01518580	    -13.42622800	     -7.20548963	      2.50493029	      2.58161029	      0.55645451	     15.94232425	      0.27824605	     12.46876412	     -3.95553656	     -7.20548963	    -20.04989175	     -3.56569227	      3.47418061	      1.45048869	    -18.70660469	      3.09488702	     38.26364196	     94.17435253	     13.30748836	    -15.22311971	     20.87697303	     30.24960100	     96.72838598
      0.23333330	      4.58930325	     -0.77367667	     -1.89879791	      0.64252067	      1.04301495	      0.65555269	     21.95622520	     -0.03523903	      3.43416615	     56.87704014	      0.99269162	      3.74538609	    -13.28727346	     -7.21814962	      1.28950222	      2.43770546	      1.27837567	     15.53744954	      0.27117965	     12.96390817	     -4.04754659	     -7.21814962	    -20.23281247	     -3.02457085	      2.86332368	      1.06639005	    -18.32492877	      1.95492252	     38.31565603	     93.50145058	     13.92221539	    -15.13762539	     20.33941902	     30.59093220	     96.28514643
      0.25000000	      4.51664886	     -0.94187355	     -1.44374073	      0.64166119	      1.04271760	      0.65586835	     22.86025764	     -0.01820556	      2.76606239	     53.36146937	      0.93133333	      4.32822213	    -12.86101209	     -7.21810482	      0.15072363	      2.33510285	      2.05646599	     15.19621041	      0.26522391	     13.33750131	     -4.38121873	     -7.21810482	    -20.28896596	     -2.60067046	      2.38757924	      0.78386568	    -17.92680302	      1.13930452	     38.31075813	     92.28601002	     14.27851449	    -15.22533023	     19.71185777	     31.11896609	     95.15701768
      0.26666670	      4.53054764	     -1.07122598	     -1.14908241	      0.63967453	      1.04096035	      0.65703172	     23.42550609	     -0.03318768	      2.20788306	     49.63389032	      0.86627481	      4.73383000	    -12.34447825	     -7.22573691	     -0.99986400	      2.16797491	      2.24348466	     14.92425098	      0.26047732	     14.09622909	     -3.56135855	     -7.22573691	    -20.40870591	     -2.30448337	      2.32073967	      0.37946779	    -17.56275061	      0.33562139	     38.17406355	     91.03326420	     14.97824204	    -15.24417180	     19.57331201	     31.33403069	     94.11078732
